# xmcd
#
# Track frame offsets:
#	150
#	12537
#	24322
#	35892
#	49182
#	61662
#	74932
#	89965
#	104800
#	118065
#	131192
#	143585
#	156535
#	170092
#	182262
#	191600
#	202715
#	214742
#	231050
#	244612
#	257440
#	277222
#	287420
#	299265
#	309262
#	321385
#	330552
#
# Disc length: 4565
#
# Revision: 2
# Processed by: cddbd v1.5.1PL0 Copyright (c) Steve Scherf et al.
# Submitted via: CDex 1.51
# Normalized: r1:TDELIM( - )
#
DISCID=a611d31b
DTITLE=Various Artist - Most Wanted Country (in Norway)
DYEAR=1995
DGENRE=Country
TTITLE0=Patsy Cline - Crazy
TTITLE1=Johnny Cash - Ring Of Fire
TTITLE2=Willie Nelson - On The Road Again
TTITLE3=Lynn Anderson - Rose Garden
TTITLE4=Jim Reeves - I Love You Because
TTITLE5=Dolly Parton - I Will Always Love You
TTITLE6=Waylon Jennings - Luckenbach, Texas (Back To The Basics of Love)
TTITLE7=The Bellamy Brothers - Let Your Love Flow
TTITLE8=Tanya Tucker - Delta Dawn
TTITLE9=Hank Williams - Jambalaya (On The Bayou)
TTITLE10=Merle Haggard - Okie From Muskogee
TTITLE11=Sir Douglas Quintet - Meet Me In Stockholm
TTITLE12=Loretta Lynn - Coal Miner's Daughter
TTITLE13=Tammy Wynette - Stand By Your Man
TTITLE14=Chet Atkins - Yakety Axe
TTITLE15=Roger Miller - King of The Road
TTITLE16=Charlie Rich - The Most Beautiful Girl
TTITLE17=Kenny Rogers - Lucille
TTITLE18=John Denver - Annie's Song
TTITLE19=Bobby Bare - Detroit City
TTITLE20=Marty Robbins - El Paso
TTITLE21=George Hamilton IV - Abilene
TTITLE22=Skeeter Davis - The End Of The World
TTITLE23=Ned Miller - From A Jack To A King
TTITLE24=Eddy Arnold - Make The World Go Away
TTITLE25=Anita Kerr Singers - Night Train To Memphis
TTITLE26=Guy Mitchell - Heartaches By The Number
EXTD=YEAR: 1995
EXTT0=
EXTT1=
EXTT2=
EXTT3=
EXTT4=
EXTT5=
EXTT6=
EXTT7=
EXTT8=
EXTT9=
EXTT10=
EXTT11=
EXTT12=
EXTT13=
EXTT14=
EXTT15=
EXTT16=
EXTT17=
EXTT18=
EXTT19=
EXTT20=
EXTT21=
EXTT22=
EXTT23=
EXTT24=
EXTT25=
EXTT26=
PLAYORDER=
